<?xml version="1.0" standalone="no"?>
<!DOCTYPE svg PUBLIC "-//W3C//DTD SVG 20010904//EN"
 "http://www.w3.org/TR/2001/REC-SVG-20010904/DTD/svg10.dtd">
<svg version="1.0" xmlns="http://www.w3.org/2000/svg"
 width="1956.000000pt" height="807.000000pt" viewBox="0 0 1956.000000 807.000000"
 preserveAspectRatio="xMidYMid meet">
<metadata>
Created by potrace 1.16, written by Peter Selinger 2001-2019
</metadata>
<g transform="translate(0.000000,807.000000) scale(0.100000,-0.100000)"
fill="#000000" stroke="none">
<path d="M17231 6829 c-145 -22 -171 -39 -191 -117 -6 -26 -20 -71 -31 -100
-33 -92 -23 -148 51 -269 l42 -68 -5 -115 c-2 -75 0 -125 8 -145 31 -76 29
-83 -20 -107 -25 -12 -45 -25 -45 -29 0 -4 20 -51 45 -103 42 -89 45 -102 45
-176 l0 -80 -70 0 c-40 0 -103 9 -147 21 -55 15 -90 19 -126 15 -27 -4 -92 -2
-143 5 l-94 12 -62 -59 c-35 -32 -65 -63 -66 -67 -2 -4 14 -36 36 -71 32 -51
42 -79 50 -140 17 -127 66 -177 191 -194 42 -6 74 -19 115 -46 l57 -38 69 12
c38 6 83 9 100 5 30 -7 30 -7 30 -73 0 -47 -5 -71 -16 -84 -16 -16 -16 -22 1
-73 14 -47 16 -67 7 -125 -7 -47 -7 -82 0 -109 14 -57 2 -148 -22 -161 -29
-15 -32 -40 -15 -120 14 -67 14 -78 0 -128 l-16 -55 32 -39 c30 -38 31 -43 21
-86 -8 -35 -6 -71 9 -166 29 -181 45 -243 84 -331 46 -103 48 -107 84 -188 17
-37 54 -96 84 -130 30 -34 84 -102 120 -151 61 -80 74 -92 135 -120 37 -17
110 -55 163 -84 77 -42 106 -52 143 -52 26 0 70 -7 97 -16 68 -23 196 -14 313
20 48 14 113 26 144 26 51 0 58 3 101 44 31 28 60 45 86 50 83 16 170 74 217
147 17 27 37 49 43 49 19 0 94 69 111 102 28 55 44 122 44 191 l0 67 -47 30
c-139 89 -293 67 -401 -56 -38 -44 -53 -54 -79 -54 -52 0 -79 -16 -169 -96
-76 -68 -89 -75 -112 -68 -15 5 -72 8 -127 9 l-100 0 -65 45 c-36 25 -79 51
-96 59 -27 10 -33 19 -38 55 -7 42 -8 43 -65 60 -92 27 -104 40 -97 95 5 41 1
57 -41 141 -41 83 -47 107 -55 190 -16 173 -21 792 -8 991 l13 186 66 0 c36
-1 91 3 122 7 38 6 74 4 109 -4 l52 -12 59 41 58 41 102 0 c94 0 103 2 132 26
27 23 36 25 76 19 106 -17 214 -1 301 45 l55 30 75 -23 75 -23 105 49 c142 67
268 150 276 183 10 41 -3 104 -27 130 -43 46 -101 55 -374 54 -193 -1 -288 -5
-415 -22 -159 -20 -172 -20 -365 -6 -175 13 -214 13 -313 1 -63 -8 -116 -13
-118 -10 -3 3 6 28 20 56 33 63 32 78 0 112 l-27 28 15 88 c14 83 14 94 -3
162 l-19 74 33 46 c31 43 33 49 26 100 -4 30 -5 60 -2 67 3 8 -3 38 -12 68
-16 51 -16 57 0 112 19 65 15 120 -13 166 -13 23 -14 32 -5 48 17 26 -9 110
-48 154 -59 67 -158 83 -338 55z"/>
<path d="M4479 5973 c-5 -14 -21 -72 -35 -128 -21 -81 -30 -105 -47 -112 -14
-6 -60 -6 -121 -1 -97 9 -99 9 -125 -16 -23 -22 -105 -61 -215 -102 -21 -7
-54 -27 -72 -44 -19 -16 -45 -30 -58 -30 -48 0 -216 -50 -291 -86 l-77 -37 7
-56 c6 -50 4 -59 -15 -76 -33 -30 -50 -69 -50 -118 0 -54 38 -116 109 -175 60
-50 225 -162 240 -162 6 0 18 14 26 31 13 24 21 30 38 25 63 -17 61 -17 101
39 34 48 43 55 73 55 25 0 44 10 76 38 52 48 87 59 94 31 7 -24 16 -24 67 0
23 11 77 35 121 55 l80 35 12 -22 c8 -14 11 -39 7 -69 -3 -26 -1 -63 6 -83 9
-26 9 -52 -1 -109 -10 -65 -10 -77 4 -91 14 -14 14 -20 0 -67 -14 -48 -14 -56
3 -104 17 -50 17 -56 1 -114 -16 -57 -16 -65 -1 -118 19 -65 14 -204 -11 -307
-8 -33 -17 -94 -21 -136 -6 -72 -5 -77 16 -92 l23 -16 -21 -56 c-12 -31 -22
-64 -22 -73 0 -9 17 -33 37 -55 l38 -38 -21 -37 c-11 -20 -29 -52 -40 -69
l-19 -33 27 -48 27 -47 -15 -80 c-38 -210 -39 -227 -20 -334 17 -100 17 -101
-3 -129 -11 -16 -27 -34 -35 -41 -14 -12 -12 -17 10 -46 23 -30 25 -40 19 -89
-6 -47 -4 -59 15 -87 23 -31 23 -31 5 -88 -10 -31 -20 -104 -24 -162 -5 -81
-10 -109 -23 -123 -25 -24 -23 -32 20 -85 21 -25 41 -53 44 -61 3 -9 -5 -41
-18 -70 -28 -66 -29 -85 -8 -168 15 -60 15 -67 0 -99 -21 -45 -20 -61 9 -144
l25 -71 -35 -43 -35 -42 15 -113 c8 -63 15 -150 15 -193 0 -73 -3 -86 -36
-145 -41 -73 -41 -80 -3 -261 23 -115 24 -162 3 -269 -10 -48 -13 -86 -8 -91
5 -4 62 -20 126 -35 143 -35 173 -31 228 26 80 82 120 282 120 599 0 152 1
158 24 186 24 28 24 32 12 79 -13 49 -13 49 18 82 30 32 31 35 34 148 4 112 3
116 -18 121 -21 6 -24 26 -9 78 1 6 -3 35 -10 65 -13 54 -12 57 13 94 22 33
25 46 20 85 -9 71 -9 277 0 481 7 159 11 190 29 219 19 31 19 39 9 108 -7 41
-9 80 -5 86 4 7 10 46 13 87 l5 75 33 3 c21 2 41 -4 60 -18 24 -20 34 -21 105
-15 l79 7 34 -33 34 -33 100 24 c96 23 103 23 185 9 47 -9 91 -12 97 -7 33 21
113 8 196 -32 46 -22 91 -40 101 -40 10 0 45 11 79 25 34 14 75 25 91 25 17 0
53 9 81 20 28 11 67 20 88 20 39 0 103 37 194 112 37 32 55 39 106 44 67 7 63
2 78 106 3 26 12 49 19 52 22 8 67 94 86 164 10 36 25 74 32 85 12 18 9 30
-16 94 l-30 73 43 106 c23 58 41 106 39 108 -2 2 -14 8 -26 15 -17 9 -23 23
-28 78 -5 39 -21 101 -40 146 -29 71 -31 83 -23 134 l9 56 -41 42 c-23 23 -40
50 -40 63 0 12 -13 49 -29 81 -17 32 -38 97 -48 144 l-17 85 -38 6 c-29 5 -38
11 -38 26 0 11 -13 35 -30 53 -27 32 -30 41 -30 106 l0 71 -44 0 c-42 0 -46 2
-71 46 -14 25 -37 50 -50 56 -12 5 -28 21 -33 34 -6 12 -27 40 -46 61 -18 21
-36 49 -37 62 -3 20 -16 28 -73 46 -37 12 -71 26 -75 31 -3 6 -46 35 -96 67
-62 39 -105 74 -137 115 -42 53 -53 60 -110 76 -49 13 -73 27 -111 64 l-48 47
-64 -23 c-81 -28 -99 -28 -92 -2 4 17 0 20 -33 20 -26 0 -48 8 -68 25 -26 21
-34 24 -57 15 -15 -6 -29 -9 -30 -8 -1 2 -10 17 -19 35 -14 27 -24 33 -85 47
-39 9 -80 16 -92 16 -12 0 -50 20 -85 45 -34 25 -66 45 -70 45 -5 0 -22 -13
-39 -30 l-31 -30 -58 95 -58 94 -57 11 c-31 6 -69 15 -84 20 -25 8 -29 6 -38
-17z m540 -832 c30 -6 51 -17 63 -34 16 -22 24 -25 54 -20 29 5 40 1 65 -23
29 -28 30 -28 62 -11 25 13 51 17 102 15 l69 -3 26 -45 c25 -42 29 -45 68 -45
39 0 45 -4 80 -50 l38 -50 64 0 63 0 57 -74 c31 -40 72 -82 91 -91 27 -14 40
-31 58 -77 16 -39 39 -71 71 -100 49 -43 147 -199 170 -268 7 -22 28 -69 47
-105 18 -36 33 -77 33 -92 0 -15 7 -45 16 -67 12 -30 13 -44 5 -60 -15 -27
-13 -58 5 -106 8 -22 17 -63 19 -90 4 -46 2 -54 -37 -105 -37 -49 -40 -57 -30
-82 9 -24 7 -30 -8 -38 -12 -6 -20 -26 -25 -58 -6 -44 -14 -57 -75 -117 -80
-79 -92 -80 -185 -18 l-56 37 -67 -19 c-78 -22 -83 -22 -182 -5 -69 12 -166
17 -215 11 -51 -6 -153 7 -177 23 -24 16 -43 17 -171 11 l-144 -8 -8 94 c-11
136 -8 181 16 243 l20 56 -25 33 -26 34 30 28 c17 16 30 38 30 50 0 12 5 36
10 52 10 26 7 36 -19 79 -33 53 -71 151 -71 183 0 11 12 67 26 123 19 76 25
117 21 158 -5 49 -2 64 34 144 l40 89 -45 46 c-66 67 -76 99 -76 241 0 136 -6
129 89 111z"/>
<path d="M2431 5929 c-57 -15 -152 -35 -211 -43 -59 -8 -124 -21 -146 -29 -35
-13 -181 -68 -388 -146 -43 -17 -99 -47 -125 -69 -25 -21 -66 -52 -91 -69 -25
-17 -59 -47 -77 -67 -19 -22 -40 -36 -55 -36 -48 0 -68 -11 -68 -37 0 -36 -33
-85 -84 -127 -57 -47 -101 -124 -126 -222 -11 -43 -26 -93 -32 -110 -9 -24 -8
-77 1 -219 l12 -188 41 -55 c23 -31 67 -112 99 -181 l58 -126 93 -61 c98 -65
133 -93 139 -113 5 -13 80 -32 204 -52 68 -11 88 -18 128 -51 27 -21 53 -38
58 -38 6 0 54 -17 108 -39 91 -36 150 -72 244 -152 l37 -32 46 18 c37 14 53
15 83 7 20 -6 56 -13 81 -16 25 -3 74 -12 110 -20 36 -9 88 -15 115 -16 40 0
56 -5 78 -26 24 -22 35 -26 69 -21 33 4 38 3 34 -10 -11 -28 21 -63 58 -63 23
0 47 -11 77 -35 24 -19 54 -35 65 -35 27 0 58 -45 50 -73 -8 -31 -107 -71
-238 -97 -31 -6 -62 -18 -68 -26 -7 -7 -27 -14 -45 -14 -43 0 -65 -9 -65 -26
0 -7 -10 -16 -22 -18 -13 -2 -70 -14 -128 -25 -66 -13 -183 -24 -315 -31 -115
-5 -273 -15 -350 -20 -232 -17 -403 -17 -460 1 -50 15 -50 15 -55 65 -5 45 -7
49 -33 52 -18 2 -32 13 -42 31 -8 16 -29 40 -47 54 -18 15 -41 33 -51 42 -10
9 -36 15 -62 15 -32 0 -66 10 -113 34 -65 33 -69 34 -102 19 -19 -8 -58 -23
-87 -33 -28 -10 -83 -42 -123 -72 l-72 -53 5 -96 c11 -190 57 -311 140 -368
29 -20 80 -38 153 -56 70 -17 129 -39 165 -61 51 -30 59 -32 94 -23 21 6 65 8
99 5 33 -3 131 -10 216 -16 87 -5 191 -19 238 -30 l84 -21 45 26 c44 26 46 26
91 11 40 -12 65 -13 156 -4 103 10 110 9 147 -12 l39 -21 46 25 c36 20 60 26
109 26 64 0 249 -16 297 -26 24 -5 27 -2 30 28 3 29 8 35 43 46 31 11 51 11
89 3 48 -11 49 -11 91 24 41 33 48 35 117 35 l74 0 49 50 c34 35 57 50 76 50
14 0 47 3 73 6 45 7 49 9 72 58 13 28 37 60 54 71 16 11 34 31 39 45 43 114
77 178 117 223 44 50 45 54 40 101 -3 27 -15 67 -27 89 -19 39 -21 66 -4 108
4 11 -13 28 -63 62 -74 50 -141 116 -166 166 -9 17 -20 31 -24 31 -4 0 -49 25
-99 55 -82 48 -99 54 -155 57 -56 3 -63 5 -66 25 -3 18 -12 22 -65 28 -34 4
-91 20 -127 35 -36 16 -93 36 -128 46 l-62 17 -25 -23 -24 -23 -17 42 c-14 35
-22 42 -58 52 -150 39 -251 71 -277 90 -26 18 -116 37 -182 39 -10 0 -39 20
-65 44 l-47 44 -73 -5 c-63 -5 -77 -3 -100 14 -15 11 -80 45 -144 76 -92 44
-118 60 -118 76 0 13 -15 28 -41 43 -23 12 -47 35 -55 50 -24 46 -27 155 -7
232 17 64 21 72 61 95 24 15 55 45 70 67 52 80 170 171 234 180 24 3 60 17 80
30 27 17 52 24 89 24 41 0 57 5 83 27 39 33 103 62 137 63 15 0 53 14 84 30
31 17 68 30 82 30 14 0 45 10 69 22 l44 21 45 -32 45 -33 70 16 c94 22 130 21
130 -2 0 -10 11 -33 24 -51 109 -147 322 -104 366 73 9 34 50 188 66 248 4 12
-12 28 -53 55 -36 24 -59 47 -61 60 -4 24 -88 107 -127 125 -14 6 -25 17 -25
24 0 7 -18 15 -42 18 -44 6 -400 27 -428 25 -8 0 -62 -14 -119 -30z"/>
<path d="M11246 5808 c-99 -42 -149 -47 -199 -21 -48 25 -150 23 -211 -5 -27
-12 -68 -22 -92 -22 l-43 0 -15 -52 c-18 -59 -58 -122 -97 -150 -14 -11 -66
-34 -115 -51 l-89 -32 -5 -86 -5 -85 -54 -62 c-30 -34 -60 -62 -67 -62 -8 0
-14 -9 -14 -20 0 -11 -9 -25 -21 -32 -11 -7 -48 -51 -81 -98 -34 -47 -69 -94
-79 -105 -9 -11 -22 -52 -28 -94 -7 -40 -21 -95 -32 -121 -19 -44 -19 -51 -6
-107 l14 -61 -34 -46 c-28 -39 -33 -54 -33 -100 0 -30 -5 -77 -10 -104 -8 -33
-8 -57 -1 -75 9 -24 8 -27 -9 -27 -22 0 -64 -76 -95 -171 -10 -30 -34 -81 -54
-113 -36 -59 -36 -60 -43 -210 -4 -83 -10 -166 -15 -184 -5 -19 -4 -71 3 -120
9 -77 8 -93 -8 -137 l-19 -50 55 -127 54 -127 -14 -47 c-8 -26 -14 -54 -14
-63 0 -9 33 -50 74 -91 40 -41 99 -114 131 -163 36 -54 65 -89 78 -92 12 -2
86 -9 165 -14 119 -9 153 -15 202 -37 57 -26 59 -26 113 -10 30 9 76 16 103
16 39 0 54 6 88 34 23 19 58 38 78 44 20 5 57 24 82 41 26 18 57 31 76 31 17
0 56 8 88 19 31 10 75 22 97 26 68 12 122 41 177 98 34 35 67 59 93 67 57 17
124 62 177 117 33 35 63 55 111 73 l67 24 0 43 c0 41 2 44 48 67 40 20 52 34
77 85 23 48 39 68 75 90 34 21 49 38 56 62 6 24 19 39 42 49 24 11 34 25 42
55 28 107 44 142 80 180 28 29 43 56 54 98 8 31 22 67 30 79 9 12 16 40 16 61
0 23 10 56 24 80 27 46 46 161 46 279 0 42 8 92 21 132 l21 64 -31 126 c-17
69 -31 143 -31 163 0 22 -28 106 -71 212 -75 188 -129 274 -243 387 -28 28
-71 76 -95 108 -24 31 -72 87 -108 126 -57 62 -69 70 -101 70 -21 0 -57 12
-89 30 -29 17 -66 30 -82 30 -30 0 -82 33 -168 106 l-48 41 -89 -39z m-32
-484 c70 -17 184 -61 223 -85 36 -22 76 -71 116 -140 17 -30 36 -49 52 -53 20
-5 25 -13 25 -36 0 -16 5 -41 10 -56 12 -30 12 -29 120 -144 57 -61 70 -80 66
-100 -19 -99 -18 -106 17 -181 26 -53 33 -78 26 -91 -15 -28 -10 -51 21 -98
34 -51 37 -72 15 -90 -49 -40 -68 -156 -40 -235 13 -36 13 -41 -4 -60 -10 -11
-26 -34 -36 -52 -10 -17 -38 -48 -62 -68 -39 -33 -43 -40 -43 -83 0 -27 -11
-73 -24 -106 -22 -54 -30 -63 -80 -88 -42 -21 -66 -43 -98 -88 -28 -40 -67
-77 -115 -110 -39 -28 -74 -58 -77 -68 -4 -10 -44 -38 -90 -61 -47 -24 -106
-63 -132 -87 -27 -24 -56 -44 -64 -44 -9 0 -45 -22 -82 -50 -61 -46 -68 -49
-97 -39 -22 8 -40 8 -62 0 -25 -8 -36 -8 -52 4 -36 25 -56 18 -73 -25 l-16
-40 -127 0 c-111 0 -134 3 -198 26 -65 24 -76 32 -109 79 l-36 53 7 79 c4 43
9 148 10 234 3 136 6 163 25 205 41 90 50 126 50 210 0 77 3 90 40 166 22 46
51 98 65 117 35 47 43 100 19 118 -18 14 -16 17 38 67 l56 52 12 84 c14 103
19 112 69 134 l40 19 17 96 c16 95 18 98 54 118 27 16 40 32 48 62 11 36 20
43 88 77 l75 38 54 110 c41 84 70 128 121 183 37 40 72 69 78 66 5 -4 33 -12
60 -19z"/>
<path d="M7505 5721 c-126 -50 -189 -91 -226 -148 -23 -34 -25 -123 -5 -161 8
-15 22 -81 31 -147 11 -76 23 -127 33 -138 14 -16 14 -22 -1 -65 -23 -63 -22
-76 12 -122 16 -22 36 -71 46 -110 15 -61 15 -73 3 -93 -11 -18 -12 -28 -2
-57 7 -19 13 -84 13 -145 1 -61 5 -125 11 -144 6 -23 6 -47 -3 -78 -10 -40 -9
-48 11 -84 13 -22 21 -48 18 -57 -13 -41 -23 -149 -15 -169 4 -12 4 -44 0 -71
-5 -31 -3 -67 4 -95 8 -33 8 -49 0 -60 -7 -10 -8 -48 -3 -120 7 -100 7 -108
-17 -159 -32 -68 -32 -113 1 -174 26 -48 27 -55 30 -244 2 -115 -1 -208 -7
-227 -8 -24 -7 -38 3 -55 7 -13 15 -67 18 -121 l5 -98 100 -40 c55 -22 114
-47 132 -55 31 -14 35 -13 125 32 148 73 194 109 238 184 69 119 69 101 -5
180 -36 38 -65 77 -66 87 0 10 -2 65 -4 123 l-3 105 43 60 42 60 -18 40 c-24
55 -24 62 15 125 19 31 37 76 40 103 7 47 9 50 62 74 l55 25 -19 31 c-16 27
-18 44 -13 107 5 65 9 76 30 86 32 16 41 32 41 73 0 22 12 49 36 83 20 27 46
68 58 91 17 33 31 44 72 60 l51 19 23 85 c17 64 27 87 44 94 12 6 44 47 71 92
28 45 61 91 75 102 14 10 55 48 91 82 43 41 74 63 90 63 18 1 37 18 73 65 42
54 62 70 128 102 49 24 78 44 78 54 0 20 55 57 130 88 30 13 78 36 107 53 l52
29 50 -21 50 -22 68 45 c71 45 85 49 314 83 l35 5 27 107 c34 135 34 167 0
220 -34 52 -87 75 -205 92 -95 13 -133 8 -185 -23 -26 -15 -55 -21 -112 -22
-54 -1 -101 -10 -161 -30 -91 -31 -315 -157 -331 -187 -12 -22 -74 -49 -95
-41 -10 3 -29 -8 -52 -30 -20 -19 -52 -42 -69 -51 -18 -9 -40 -30 -48 -46 -12
-22 -27 -33 -60 -41 -39 -10 -50 -19 -83 -69 -28 -44 -51 -66 -93 -89 -65 -36
-144 -116 -166 -169 -8 -20 -35 -58 -59 -84 -24 -25 -46 -58 -49 -72 -3 -14
-7 -37 -10 -50 -3 -16 -22 -34 -58 -54 -48 -27 -54 -34 -65 -79 -7 -33 -22
-61 -45 -84 -25 -26 -38 -51 -51 -104 -9 -38 -27 -90 -39 -113 -19 -40 -22
-42 -34 -26 -7 10 -13 27 -13 39 0 12 -5 26 -11 32 -8 8 -7 24 4 60 22 70 29
183 16 262 -11 64 -10 73 10 114 l22 45 -20 98 c-19 91 -33 171 -63 372 -8 51
-8 100 -1 170 l11 97 -39 54 c-22 30 -39 60 -39 67 0 12 -29 105 -34 111 -1 1
-36 9 -77 18 -41 9 -81 17 -89 20 -8 2 -46 -9 -85 -24z"/>
<path d="M13045 5685 c-119 -32 -172 -70 -204 -146 -29 -66 -28 -92 3 -219 46
-184 45 -209 -30 -609 -13 -71 -14 -99 -4 -175 6 -50 14 -125 17 -168 l5 -76
-41 -28 c-30 -19 -40 -32 -35 -43 24 -57 28 -92 13 -138 -10 -33 -12 -64 -7
-98 19 -131 19 -178 4 -314 -14 -129 -14 -147 -1 -167 19 -30 19 -64 0 -92
-14 -19 -14 -25 3 -64 69 -153 72 -164 50 -187 -11 -10 -1 -24 50 -70 l64 -57
-7 -56 c-7 -55 -7 -55 25 -68 19 -8 39 -27 50 -50 25 -49 84 -88 145 -97 27
-3 81 -23 120 -43 65 -35 72 -37 100 -24 67 30 264 104 320 120 52 14 66 24
100 68 28 34 64 64 110 89 55 30 84 56 134 118 36 43 73 79 82 79 9 0 77 63
150 141 91 96 146 146 172 156 60 24 169 156 218 263 l41 88 62 11 c36 6 66
18 74 28 6 9 12 42 12 72 0 31 4 62 8 69 5 7 32 15 61 19 l53 6 41 83 c23 46
45 84 50 84 5 0 6 -8 3 -17 -3 -10 -13 -55 -22 -100 -17 -80 -17 -83 4 -150
31 -100 35 -150 22 -266 l-12 -104 28 -54 c28 -55 36 -118 21 -170 -6 -23 0
-31 53 -74 33 -27 60 -55 60 -64 1 -9 13 -53 28 -97 l27 -81 130 -112 c158
-136 220 -169 374 -201 90 -18 130 -21 196 -16 107 8 212 30 286 60 32 13 69
21 81 19 16 -3 36 5 60 24 20 17 61 35 92 42 46 10 62 20 87 51 17 21 42 41
55 44 34 9 110 92 141 153 21 44 24 61 18 99 -16 109 -84 157 -221 158 -79 0
-83 -1 -215 -66 -169 -81 -213 -93 -332 -84 -111 9 -227 42 -227 66 0 10 -21
28 -50 44 -30 17 -70 52 -100 89 l-50 62 0 97 c0 89 -2 98 -19 98 -16 0 -19
11 -25 92 -3 50 -6 120 -6 156 0 36 -7 123 -16 194 l-17 130 30 29 29 30 -12
61 c-12 59 -12 63 12 103 18 31 24 56 24 98 0 54 2 57 38 82 38 26 46 44 106
257 8 26 39 80 71 123 53 70 60 86 87 193 55 217 54 194 14 259 -24 38 -66 82
-120 127 l-85 69 -98 -2 c-53 -1 -102 -6 -109 -12 -6 -5 -16 -28 -23 -51 -7
-24 -33 -81 -57 -128 -41 -79 -43 -86 -26 -98 16 -12 16 -14 -3 -28 -11 -8
-30 -17 -42 -20 -17 -5 -27 -24 -48 -87 -25 -75 -51 -141 -107 -267 -11 -25
-42 -68 -69 -97 -32 -34 -53 -67 -61 -97 -9 -33 -18 -46 -35 -51 -19 -4 -23
-12 -23 -40 0 -43 -44 -87 -105 -105 -22 -7 -60 -23 -85 -35 -38 -19 -48 -31
-62 -72 -15 -43 -24 -52 -68 -73 -27 -13 -50 -29 -50 -36 0 -34 -180 -223
-226 -238 -45 -14 -105 -68 -136 -122 -23 -41 -50 -71 -100 -107 -37 -27 -68
-57 -68 -66 0 -10 -21 -25 -56 -40 -30 -13 -77 -42 -105 -64 -27 -21 -71 -47
-97 -57 -44 -16 -62 -36 -76 -82 -3 -12 -22 -18 -70 -23 l-65 -7 -3 -36 c-2
-30 -9 -39 -40 -55 -20 -11 -44 -35 -54 -53 -11 -19 -41 -49 -69 -68 l-51 -34
-36 34 c-31 28 -39 44 -52 109 -9 42 -19 81 -22 87 -3 5 8 38 26 73 36 71 35
100 -4 158 -32 47 -52 200 -35 275 8 40 8 60 -1 81 -8 21 -9 44 -1 87 6 32 11
110 11 174 0 103 3 124 26 181 22 53 25 69 16 93 -9 23 -7 36 12 75 20 42 22
54 15 131 -4 47 -8 175 -8 285 -1 175 2 209 20 270 11 39 23 79 25 90 4 15
-12 40 -56 90 -59 67 -64 70 -126 82 -35 7 -73 17 -83 23 -24 12 -34 12 -96
-5z"/>
</g>
</svg>
