<?xml version="1.0" standalone="no"?>
<!DOCTYPE svg PUBLIC "-//W3C//DTD SVG 20010904//EN"
 "http://www.w3.org/TR/2001/REC-SVG-20010904/DTD/svg10.dtd">
<svg version="1.0" xmlns="http://www.w3.org/2000/svg"
 width="512.000000pt" height="512.000000pt" viewBox="0 0 512.000000 512.000000"
 preserveAspectRatio="xMidYMid meet">
<metadata>
Created by potrace 1.16, written by Peter Selinger 2001-2019
</metadata>
<g transform="translate(0.000000,512.000000) scale(0.100000,-0.100000)"
fill="#000000" stroke="none">
<path d="M2365 5010 c-55 -4 -143 -15 -195 -24 -52 -10 -108 -20 -125 -22 -16
-3 -39 -9 -50 -14 -11 -4 -40 -13 -65 -20 -76 -21 -132 -41 -197 -71 -34 -16
-64 -29 -67 -29 -18 0 -235 -113 -305 -160 -46 -30 -91 -59 -99 -65 -9 -5 -25
-18 -36 -29 -12 -10 -52 -42 -91 -71 -73 -55 -255 -229 -368 -353 -88 -96
-116 -162 -84 -203 13 -16 98 -49 128 -49 25 0 130 100 184 175 25 35 57 73
72 85 25 20 130 113 233 206 69 63 203 145 363 224 80 38 150 70 156 70 6 0
30 8 54 19 53 23 106 39 177 51 30 5 75 14 100 20 42 10 78 17 205 40 89 16
198 31 286 39 47 4 90 11 96 14 6 4 13 20 17 37 3 16 9 43 12 60 4 18 14 32
27 36 18 6 12 9 -28 20 -64 17 -271 24 -400 14z"/>
<path d="M3534 4802 c-19 -12 -31 -45 -38 -97 -10 -69 2 -82 192 -208 86 -58
170 -116 186 -129 16 -12 56 -45 90 -72 89 -72 169 -150 243 -239 99 -118 173
-150 270 -115 29 11 33 16 33 49 0 75 -51 148 -238 337 -106 107 -129 127
-262 225 -58 43 -112 84 -120 90 -8 7 -58 40 -110 73 -122 79 -211 110 -246
86z"/>
<path d="M2927 4473 c-4 -3 -26 -10 -49 -14 -24 -4 -61 -13 -83 -19 -22 -6
-60 -16 -85 -21 -25 -5 -53 -14 -62 -19 -10 -6 -24 -10 -31 -10 -15 0 -85 -31
-137 -61 -19 -11 -43 -23 -52 -26 -10 -3 -18 -9 -18 -14 0 -5 -5 -9 -11 -9
-12 0 -69 -41 -123 -90 -44 -40 -110 -133 -120 -170 -4 -14 -11 -34 -15 -45
-28 -66 -35 -118 -35 -253 -1 -162 5 -193 62 -312 78 -165 107 -187 258 -196
88 -5 152 1 249 21 27 6 93 36 152 69 47 26 147 133 198 210 102 155 120 213
120 386 0 151 -14 232 -71 414 -29 90 -83 166 -119 166 -12 0 -25 -3 -28 -7z
m-53 -258 c11 -22 23 -47 27 -56 18 -38 31 -188 27 -293 -5 -114 -26 -185 -63
-216 -8 -7 -15 -19 -15 -26 0 -8 -5 -14 -11 -14 -5 0 -7 -4 -4 -10 8 -14 -40
-72 -95 -114 -51 -39 -170 -108 -170 -99 0 12 75 76 100 84 21 8 25 15 24 44
-1 19 1 34 5 33 25 -3 37 5 39 26 1 22 -4 26 -41 33 -33 7 -43 13 -45 32 -2
13 -12 26 -23 28 -22 6 -23 12 -5 36 18 23 33 22 41 -4 4 -11 13 -19 21 -17 8
2 15 5 14 8 -1 3 3 17 9 32 8 23 6 35 -12 69 -18 36 -30 44 -71 56 -79 23
-120 -5 -212 -147 -27 -41 -58 -103 -69 -136 -24 -72 -37 -83 -45 -34 -4 20
-9 41 -13 47 -20 32 0 270 25 298 4 5 8 17 8 26 0 67 174 238 259 255 17 4 34
11 37 15 3 5 14 9 25 9 10 0 19 5 19 10 0 6 7 10 15 10 8 0 34 8 58 19 23 10
53 23 67 29 39 17 53 10 74 -33z"/>
<path d="M645 3418 c-22 -5 -59 -15 -83 -20 -70 -18 -72 -24 -75 -289 -2 -227
13 -430 34 -453 5 -6 9 -20 9 -33 0 -13 4 -31 9 -41 6 -9 22 -51 37 -92 15
-41 31 -79 35 -85 5 -5 9 -15 9 -22 0 -60 170 -320 285 -436 156 -157 285
-227 500 -272 44 -9 103 -21 130 -27 54 -11 209 -5 290 10 100 20 140 34 204
69 71 39 82 48 99 79 10 18 -16 47 -262 293 -209 209 -275 269 -280 256 -4
-12 -12 -14 -28 -9 -13 4 -25 9 -28 13 -18 22 -78 42 -130 45 -46 2 -64 7 -78
24 -11 12 -21 20 -24 17 -2 -3 -22 12 -44 32 -46 44 -84 67 -84 51 0 -7 -6 -6
-15 2 -17 14 -20 3 -6 -19 13 -21 -25 -39 -72 -33 -25 3 -52 -3 -85 -18 -46
-22 -47 -23 -22 -33 35 -15 35 -16 17 -30 -14 -10 -15 -18 -7 -46 5 -19 7 -38
4 -42 -8 -14 -74 27 -74 45 0 3 -21 37 -46 76 -25 39 -54 92 -65 118 -11 26
-25 58 -31 72 -35 82 -46 144 -59 320 -5 80 -13 178 -17 218 l-7 74 35 15 c28
12 85 16 290 17 385 2 444 -12 690 -158 74 -44 85 -51 90 -56 3 -3 18 -14 33
-23 90 -58 175 -144 206 -211 69 -146 80 -172 98 -241 5 -20 5 -20 -13 0 -11
11 -32 38 -49 60 -46 63 -210 225 -226 225 -8 0 -22 9 -32 20 -12 14 -26 19
-49 16 -28 -3 -34 -8 -39 -35 -9 -45 9 -86 43 -99 15 -5 28 -18 28 -27 0 -9 9
-28 19 -42 11 -13 17 -31 14 -39 -6 -15 -33 -19 -48 -6 -6 4 -37 17 -70 27
-33 11 -65 26 -72 35 -10 12 -15 13 -32 3 -17 -11 -22 -10 -31 6 -8 16 -16 18
-43 11 -26 -5 -40 -3 -58 11 -13 9 -28 15 -33 12 -5 -4 -34 -7 -63 -9 -30 -1
-57 -5 -61 -9 -4 -3 27 -38 68 -76 80 -75 220 -153 329 -184 105 -31 170 -74
288 -191 64 -64 131 -142 159 -185 56 -89 102 -139 125 -139 25 0 54 45 73
115 14 50 17 93 13 245 -4 174 -10 228 -38 325 -14 48 -18 59 -70 183 -8 17
-17 32 -21 32 -5 0 -8 5 -8 11 0 21 -108 164 -162 215 -29 27 -68 57 -85 65
-18 7 -33 17 -33 21 0 5 -5 8 -11 8 -6 0 -23 9 -37 19 -44 31 -223 121 -241
121 -10 0 -21 4 -26 9 -25 23 -164 61 -300 83 -83 14 -640 18 -690 6z"/>
<path d="M3848 3425 c-4 -4 -33 -11 -65 -15 -126 -19 -211 -38 -268 -60 -211
-83 -367 -192 -468 -326 -36 -48 -74 -103 -84 -123 -10 -20 -20 -38 -24 -41
-12 -11 -60 -125 -97 -230 -23 -66 -26 -91 -27 -205 0 -120 7 -170 35 -240 45
-112 54 -234 14 -177 -15 21 -71 40 -142 47 -48 5 -51 3 -85 -34 -44 -49 -86
-121 -99 -169 -15 -57 -37 -186 -68 -397 -30 -198 -46 -680 -27 -818 l7 -59
-82 6 c-173 14 -349 49 -448 90 -19 8 -65 26 -102 40 -114 44 -315 145 -406
206 -209 139 -506 428 -655 638 -20 28 -37 54 -37 57 0 2 -13 23 -29 47 -47
71 -126 221 -205 389 -72 153 -151 199 -193 112 -38 -82 -11 -227 77 -404 67
-134 216 -371 293 -465 9 -10 33 -40 54 -66 58 -70 257 -257 379 -355 102 -81
263 -193 279 -193 4 0 19 -9 34 -19 73 -53 341 -169 536 -233 68 -23 357 -62
443 -61 l42 0 0 -163 c0 -103 -4 -164 -10 -164 -5 0 -10 -9 -10 -20 0 -19 7
-20 230 -20 151 0 230 4 230 10 0 14 -15 19 -75 24 -27 2 -53 5 -58 5 -4 1 -6
76 -5 168 l3 168 40 -3 c137 -8 189 -2 435 57 19 5 58 16 85 25 28 9 75 24
105 33 30 10 59 21 65 25 5 4 15 8 22 8 7 0 47 16 89 35 41 19 79 35 84 35 5
0 10 3 12 8 2 4 19 15 38 24 148 73 345 208 467 321 103 95 218 215 262 272
12 17 39 48 59 70 44 47 82 99 101 137 8 15 21 36 30 45 33 36 60 81 133 223
42 80 89 170 104 200 40 75 61 144 69 217 8 81 -2 99 -68 118 -93 27 -122 -1
-196 -188 -154 -388 -397 -722 -724 -997 -139 -117 -291 -207 -482 -284 -38
-15 -81 -33 -95 -38 -47 -20 -65 -26 -155 -52 -49 -14 -97 -26 -105 -26 -9 0
-20 -4 -25 -9 -6 -5 -30 -11 -55 -14 -25 -3 -85 -13 -135 -22 -49 -9 -107 -19
-129 -22 l-38 -6 5 309 c7 393 37 679 94 884 8 30 17 66 20 80 4 25 17 59 34
92 5 10 9 22 9 28 0 10 14 28 66 89 17 20 57 74 89 121 68 101 102 138 175
194 77 57 125 87 200 123 139 67 203 82 232 57 10 -10 18 -13 18 -7 0 21 -40
45 -74 45 -20 0 -36 4 -36 9 0 9 19 12 55 10 11 -1 2 7 -20 17 -43 20 -89 16
-146 -13 -15 -8 -37 -15 -49 -15 -11 0 -34 -13 -50 -30 -16 -17 -33 -30 -38
-30 -17 0 -32 27 -34 63 -2 29 -6 36 -18 30 -8 -3 -40 -8 -70 -9 -30 -2 -58
-3 -63 -3 -4 -1 -12 -12 -17 -26 -5 -14 -18 -28 -27 -31 -10 -3 -24 -8 -31
-10 -11 -3 -10 -7 2 -20 23 -22 20 -27 -7 -9 -21 13 -25 28 -18 65 1 3 6 -2
11 -10 7 -10 8 -4 4 20 -6 39 35 127 118 255 84 128 294 305 398 334 25 7 59
19 75 26 47 21 142 39 290 55 129 13 504 15 518 1 16 -16 21 -212 8 -331 -17
-151 -18 -161 -30 -173 -5 -5 -7 -22 -4 -37 3 -15 0 -31 -6 -34 -6 -4 -11 -21
-11 -37 0 -26 -3 -30 -22 -25 -13 3 -17 3 -10 0 6 -3 12 -16 12 -28 0 -25 -21
-76 -32 -76 -3 0 -9 -13 -13 -30 -9 -41 -24 -47 -23 -10 1 17 5 33 10 36 4 3
8 12 8 20 0 10 -6 8 -21 -7 -11 -11 -23 -19 -25 -16 -8 7 8 37 20 37 6 0 -2
11 -18 23 -28 23 -29 24 -10 45 10 12 22 22 27 22 12 0 37 27 30 33 -3 3 2 19
10 36 13 27 13 31 -2 44 -9 8 -23 17 -31 20 -11 3 -7 8 12 15 25 10 26 14 22
59 -2 29 -10 51 -20 56 -14 8 -13 11 6 29 l21 20 -21 23 c-12 13 -19 28 -16
33 10 17 -5 42 -25 42 -10 0 -18 6 -17 13 2 7 -5 11 -17 9 -11 -2 -28 -3 -37
-3 -9 0 -22 -7 -28 -15 -7 -7 -17 -11 -22 -8 -5 3 -8 -1 -6 -9 2 -9 -1 -15 -6
-14 -5 1 -12 -8 -17 -20 -5 -13 -14 -20 -21 -18 -7 3 -18 -6 -25 -20 -6 -14
-8 -25 -4 -25 4 0 7 -9 7 -20 0 -13 -5 -19 -14 -15 -7 2 -10 0 -7 -5 3 -6 1
-10 -5 -10 -6 0 -8 -5 -5 -11 4 -6 -2 -13 -14 -16 -19 -5 -26 -23 -24 -71 1
-7 -12 -16 -28 -19 -21 -4 -31 -13 -35 -32 -4 -14 -14 -35 -24 -46 -9 -11 -25
-35 -36 -52 -21 -37 -26 -39 -44 -18 -14 17 -30 20 -30 5 0 -6 11 -15 25 -22
13 -6 22 -15 19 -19 -3 -5 0 -9 6 -9 6 0 8 -5 5 -10 -4 -6 -12 -5 -20 4 -16
15 -48 11 -80 -11 -14 -9 -16 -13 -5 -14 8 0 0 -7 -17 -15 -18 -8 -33 -20 -33
-27 0 -6 -5 -4 -11 6 -13 23 -29 22 -29 -3 0 -11 5 -20 10 -20 6 0 5 -8 -2
-19 -7 -11 -16 -17 -20 -15 -4 3 -14 -8 -20 -23 -7 -15 -22 -39 -33 -53 -33
-41 -137 -139 -183 -172 -55 -41 -162 -164 -162 -188 0 -10 -15 -33 -33 -51
-18 -19 -66 -69 -107 -111 -72 -76 -73 -78 -55 -98 31 -34 141 -81 240 -102
80 -17 263 -21 325 -7 149 33 188 46 330 111 94 44 236 162 308 256 15 20 38
47 50 61 26 29 112 149 112 157 0 3 12 24 28 47 26 40 44 77 72 142 7 17 16
38 21 47 5 10 9 24 9 32 0 14 25 104 40 141 39 102 53 243 47 485 -3 118 -8
225 -12 237 -9 29 -32 35 -160 45 -156 11 -639 21 -647 13z"/>
</g>
</svg>
