<?xml version="1.0" encoding="UTF-8"?>
<svg version="1.1" xmlns="http://www.w3.org/2000/svg" width="1567" height="739">
<path d="M0 0 C517.11 0 1034.22 0 1567 0 C1567 243.87 1567 487.74 1567 739 C1049.89 739 532.78 739 0 739 C0 495.13 0 251.26 0 0 Z " fill="#FEFEFE" transform="translate(0,0)"/>
<path d="M0 0 C1.83488272 0.04549641 3.67044372 0.06208288 5.50585938 0.07275391 C29.72953998 0.91995517 52.97727258 12.78871356 71.14648438 28.05322266 C71.88511719 28.64490234 72.62375 29.23658203 73.38476562 29.84619141 C86.58077341 40.83895811 95.70000583 56.04403114 103.39648438 71.17822266 C103.71383545 71.79874512 104.03118652 72.41926758 104.3581543 73.05859375 C120.13181499 104.93755584 123.91860914 148.16515576 117.14648438 183.05322266 C116.87989014 184.46764648 116.87989014 184.46764648 116.60791016 185.91064453 C109.08939902 224.59778057 90.99725202 260.03406338 58.14648438 283.05322266 C39.22625651 295.68589191 15.88722133 303.50032947 -6.85351562 304.05322266 C-7.55766602 304.07368652 -8.26181641 304.09415039 -8.98730469 304.11523438 C-38.94826578 304.90231129 -67.21345967 297.16262159 -89.46289062 276.42041016 C-99.27283742 266.70663931 -99.27283742 266.70663931 -102.48242188 261.31884766 C-103.65169801 258.93176884 -103.65169801 258.93176884 -105.85351562 258.05322266 C-105.85351562 310.85322266 -105.85351562 363.65322266 -105.85351562 418.05322266 C-123.01351562 418.05322266 -140.17351562 418.05322266 -157.85351562 418.05322266 C-157.86382309 413.44829361 -157.87413055 408.84336456 -157.88475037 404.09889221 C-157.97990048 361.78526656 -158.07973874 319.471654 -158.18463257 277.15805135 C-158.1984007 271.60235658 -158.21212801 266.04666172 -158.22583008 260.4909668 C-158.22855838 259.38501586 -158.23128669 258.27906493 -158.23409767 257.13960033 C-158.27806743 239.27654934 -158.31873708 221.4134923 -158.35816824 203.55043078 C-158.3987593 185.19550945 -158.44294064 166.84059924 -158.49039418 148.48569435 C-158.51951955 137.17701099 -158.54590737 125.86832826 -158.5686946 114.55963033 C-158.58463012 106.78494226 -158.60408045 99.01026771 -158.62618404 91.23559476 C-158.63880014 86.762735 -158.64997315 82.28988523 -158.65693474 77.81701279 C-158.68717847 53.58805227 -158.68717847 53.58805227 -159.50825638 29.37474686 C-159.89667896 21.56653895 -159.85351562 13.91314642 -159.85351562 6.05322266 C-144.34351563 6.05322266 -128.83351563 6.05322266 -112.85351562 6.05322266 C-110.48449512 42.47691286 -110.48449512 42.47691286 -110.85351562 57.05322266 C-107.87453231 54.22549015 -105.50850579 51.29708692 -103.16601562 47.92822266 C-84.60377698 22.12636782 -59.08803888 7.12347964 -28.18164062 1.36962891 C-18.77975697 -0.0931105 -9.49514654 -0.24392294 0 0 Z " fill="#0D360A" transform="translate(427.853515625,221.94677734375)"/>
<path d="M0 0 C1.18078125 0.01804688 2.3615625 0.03609375 3.578125 0.0546875 C38.2741175 1.35387665 71.3717438 17.15287444 95.3515625 42.01171875 C125.96856525 76.55745194 135.63885557 121.83517115 133 167 C129.73637929 206.91686639 113.10119925 244.23295625 83 271 C64.46567197 286.37397377 42.40898113 295.98921269 19 301 C17.50533203 301.32097656 17.50533203 301.32097656 15.98046875 301.6484375 C-3.91462408 305.57622407 -25.25347431 305.62279915 -45 301 C-46.24652344 300.7215625 -47.49304688 300.443125 -48.77734375 300.15625 C-82.78766888 291.8767165 -111.37184205 271.06633434 -130.1875 241.6875 C-143.96693192 218.41181336 -152.41342449 192.15966792 -153 165 C-153.03867187 163.62980713 -153.03867187 163.62980713 -153.078125 162.23193359 C-154.21020657 117.38027686 -143.37155658 75.25628187 -112 42 C-110.37550757 40.29220027 -108.70779973 38.62449243 -107 37 C-106.34128906 36.35804688 -105.68257812 35.71609375 -105.00390625 35.0546875 C-76.43620426 8.12880746 -38.33166835 -1.13631428 0 0 Z " fill="#0E360B" transform="translate(895,222)"/>
<path d="M0 0 C17.49 0 34.98 0 53 0 C53.01458252 5.31246826 53.02916504 10.62493652 53.04418945 16.09838867 C53.09466861 33.70833347 53.16113987 51.3181916 53.23571491 68.92805004 C53.2805156 79.59826349 53.31996572 90.26844473 53.34643555 100.9387207 C53.36954385 110.24828982 53.40308273 119.55775565 53.44870156 128.86724263 C53.47246227 133.78804307 53.49130256 138.7087423 53.49761391 143.62959862 C52.73632039 194.26727145 52.73632039 194.26727145 75.60888672 237.93652344 C87.40046925 249.60498739 102.06636419 253.33698062 118.1875 253.4375 C126.1351303 253.34739996 133.47955554 252.75786549 141 250 C141.98871094 249.64808594 142.97742187 249.29617188 143.99609375 248.93359375 C163.18607764 241.52650443 177.74302341 228.04698757 186.8125 209.6875 C192.3416469 196.11922553 193.59168936 183.38417789 193.54589844 168.92578125 C193.55465587 167.07121931 193.56514911 165.21666489 193.57722473 163.36212158 C193.60483977 158.37969554 193.60849489 153.39751902 193.60750484 148.41502762 C193.61065522 143.18865766 193.63631721 137.96239663 193.65948486 132.73608398 C193.69988674 122.86264651 193.72034822 112.98927481 193.73345876 103.11576748 C193.74938264 91.86524951 193.78782071 80.61484263 193.82805204 69.36438942 C193.91023445 46.24294164 193.96149062 23.12156461 194 0 C211.49 0 228.98 0 247 0 C247.02505615 7.92177246 247.0501123 15.84354492 247.07592773 24.00537109 C247.15704798 49.44785634 247.2426872 74.8903245 247.33111694 100.33278533 C247.34488399 104.29493619 247.35861147 108.2570872 247.37231445 112.21923828 C247.37504276 113.00792174 247.37777106 113.7966052 247.38058204 114.60918815 C247.42447325 127.3242065 247.46516937 140.03923312 247.50465261 152.75426583 C247.54533809 165.83316742 247.58953153 178.91205388 247.63687855 191.99093306 C247.66590889 200.03980201 247.69230975 208.08867028 247.71517897 216.13755913 C247.73310847 222.34386123 247.75595463 228.55013703 247.78049088 234.75641632 C247.78972229 237.27720492 247.79744495 239.79799964 247.80341911 242.31879807 C247.84388639 258.90484388 248.28487767 275.4280754 249 292 C233.49 292 217.98 292 202 292 C201.0625 276.4375 201.0625 276.4375 200.77368164 271.63061523 C200.21694248 262.41792131 199.62601676 253.20826006 199 244 C198.34 244 197.68 244 197 244 C196.64421875 245.04607422 196.64421875 245.04607422 196.28125 246.11328125 C194.77561412 249.50555234 192.77151427 252.28390087 190.5 255.1875 C190.05495117 255.75702393 189.60990234 256.32654785 189.15136719 256.91333008 C170.25779009 280.67676328 143.29344695 294.21513927 113.359375 297.76855469 C85.08980169 300.5416875 58.45994398 293.89127852 36.375 275.8125 C30.222638 270.59002048 25.4500302 264.74512451 21 258 C20.38640625 257.08992188 19.7728125 256.17984375 19.140625 255.2421875 C13.59773495 246.43733119 10.28547491 236.81307472 7 227 C6.67 226.03449219 6.34 225.06898438 6 224.07421875 C0.00966787 204.51204038 -0.15905028 183.07904025 -0.11352539 162.79541016 C-0.11324266 161.01011659 -0.11340293 159.22482291 -0.1139679 157.43952942 C-0.1142525 152.63678222 -0.10841054 147.83406047 -0.10139394 143.03131914 C-0.09510403 137.99584618 -0.09455217 132.96037252 -0.09336853 127.92489624 C-0.09027174 118.4090865 -0.0820808 108.89328837 -0.07201904 99.37748373 C-0.06080637 88.53577079 -0.05533451 77.69405728 -0.05032361 66.85233998 C-0.03989666 44.56821875 -0.02157191 22.28411342 0 0 Z " fill="#0D360A" transform="translate(1069,228)"/>
<path d="M0 0 C1.05960938 0.35191406 2.11921875 0.70382812 3.2109375 1.06640625 C25.50032535 8.93783343 40.76176191 25.78114847 51 46.5859375 C60.04755187 65.97969175 63.76907715 86.60132665 63.5 107.875 C63.49412872 108.74674866 63.48825745 109.61849731 63.48220825 110.5166626 C63.22017804 143.75761052 53.58647541 174.03724436 30.6875 198.75 C14.16970697 214.33939249 -6.68415995 221.68108132 -29.15112305 221.47045898 C-50.85457524 220.82763499 -70.19776448 210.79877054 -85.13671875 195.1484375 C-103.05207668 174.49131619 -114.04584912 147.0514218 -114.203125 119.6015625 C-114.20882507 118.80833588 -114.21452515 118.01510925 -114.22039795 117.19784546 C-114.22980159 115.52204703 -114.23636338 113.8462305 -114.24023438 112.17041016 C-114.24984024 109.666641 -114.28086551 107.16372986 -114.3125 104.66015625 C-114.41054002 90.02062947 -112.61565025 76.1974722 -107.75 62.3125 C-107.44553955 61.42876709 -107.1410791 60.54503418 -106.82739258 59.63452148 C-98.08178449 34.91045105 -83.12029396 14.90124348 -59.15625 3.3515625 C-41.53075936 -4.19598671 -18.29723105 -6.71977954 0 0 Z " fill="#FEFEFE" transform="translate(910,265)"/>
<path d="M0 0 C21.6503462 18.54875166 32.95084252 47.88612372 35.21875 75.8203125 C36.64109321 111.07843655 32.57732453 148.6709803 7.90625 176.0078125 C-5.55811275 190.38827409 -23.5551084 200.96898195 -43.62670898 201.9609375 C-68.43910699 202.71414075 -89.94960495 199.1441427 -108.78125 181.8203125 C-109.61011719 181.08296875 -110.43898438 180.345625 -111.29296875 179.5859375 C-128.46995526 163.48744478 -136.23817492 141.79734776 -137.16723633 118.57861328 C-137.33378038 111.84622203 -137.34720293 105.11752598 -137.30273438 98.38378906 C-137.2799 94.88982355 -137.29351499 91.39707398 -137.31650734 87.9031496 C-137.49135059 56.55690712 -131.63757642 28.7870256 -109.40625 5.3125 C-98.38783601 -5.08975268 -86.11350691 -11.66257662 -71.78125 -16.1796875 C-70.9459375 -16.44652344 -70.110625 -16.71335937 -69.25 -16.98828125 C-45.28586275 -23.10588671 -18.93620828 -14.84045537 0 0 Z " fill="#FEFEFE" transform="translate(458.78125,282.1796875)"/>
<path d="M0 0 C0 27.72 0 55.44 0 84 C25.08 84 50.16 84 76 84 C76 97.2 76 110.4 76 124 C50.92 124 25.84 124 0 124 C0.09068064 154.55963876 0.09068064 154.55963876 0.20898438 185.11914062 C0.26338654 197.5886094 0.31480316 210.05803778 0.34643555 222.52758789 C0.36949152 231.61076859 0.40297373 240.6938425 0.44870156 249.77693838 C0.47253173 254.58129426 0.49132711 259.38554505 0.49761391 264.18995857 C0.50371129 268.72327307 0.52387662 273.25631902 0.55427551 277.78953362 C0.56298185 279.44253542 0.56679392 281.09557243 0.56500816 282.74859619 C0.55361613 298.17644441 2.27565457 311.29412802 10 325 C10.35449219 325.74894531 10.70898438 326.49789063 11.07421875 327.26953125 C12.3218418 329.60158616 13.59782084 329.93236482 16 331 C16.94875 331.66 17.8975 332.32 18.875 333 C24.21483351 336.41749345 28.7936435 337.25395562 35.0859375 337.265625 C35.74655182 337.26753845 36.40716614 337.2694519 37.08779907 337.27142334 C38.47780745 337.27277686 39.86782883 337.26913893 41.2578125 337.26074219 C43.36227482 337.25006457 45.46587696 337.26064757 47.5703125 337.2734375 C54.37017254 337.27948845 60.47225182 336.96299826 67 335 C68.32 335 69.64 335 71 335 C71.66 348.2 72.32 361.4 73 375 C46.22738072 383.92420643 13.04829277 386.93255604 -13 374 C-29.6534561 365.24905728 -40.32587901 351.6676883 -46.125 333.8125 C-51.3601005 315.73338775 -52.15752684 298.08337972 -52.11352539 279.41625977 C-52.11324254 277.70963543 -52.11340316 276.00301098 -52.1139679 274.29638672 C-52.11425206 269.71269949 -52.10841755 265.12903901 -52.10139394 260.54535794 C-52.09509636 255.73677793 -52.09455157 250.92819715 -52.09336853 246.11961365 C-52.09027395 237.03591174 -52.08208608 227.95222202 -52.07201904 218.86852545 C-52.06079939 208.51771115 -52.05533277 198.16689623 -52.05032361 187.81607735 C-52.03990169 166.54404327 -52.02157979 145.27202589 -52 124 C-66.85 124 -81.7 124 -97 124 C-97 110.8 -97 97.6 -97 84 C-82.15 84 -67.3 84 -52 84 C-52 60.9 -52 37.8 -52 14 C-48.48554907 12.59421963 -45.47873306 11.53665485 -41.859375 10.66796875 C-40.3885144 10.30964966 -40.3885144 10.30964966 -38.88793945 9.9440918 C-37.85241943 9.6944165 -36.81689941 9.44474121 -35.75 9.1875 C-27.52393174 7.1734736 -19.36521525 5.04015091 -11.26660156 2.5612793 C-2.873271 0 -2.873271 0 0 0 Z " fill="#0D360A" transform="translate(1444,144)"/>
<path d="M0 0 C23.8366891 -0.58614809 53.5897974 2.9232111 73.5625 17.15625 C75.2138071 21.52622144 73.54172076 25.00992511 72.03515625 29.203125 C71.63350502 30.35992767 71.63350502 30.35992767 71.22373962 31.5401001 C70.36740147 33.99908002 69.49643748 36.45258558 68.625 38.90625 C68.04134603 40.57387899 67.45865208 42.24184431 66.87695312 43.91015625 C65.4499067 47.99617158 64.00972274 52.07733951 62.5625 56.15625 C57.89312972 54.63939321 53.46425467 52.81213553 49 50.78125 C29.05939166 41.91083991 4.53109763 36.55004454 -17 42.84375 C-19.85629629 43.90280846 -19.85629629 43.90280846 -22.4375 45.15625 C-23.28054687 45.55328125 -24.12359375 45.9503125 -24.9921875 46.359375 C-34.61284754 51.34319233 -40.46634782 57.92169793 -44.578125 67.93359375 C-46.95815063 76.85868985 -46.88177918 87.37822044 -42.9375 95.78125 C-31.74641528 114.51023777 -9.86684888 121.30007199 9.39990234 128.89404297 C38.87964955 140.65954344 67.16794018 155.67911435 80.875 185.90625 C88.74070628 207.61559934 87.31291959 231.63370418 78.21875 252.62109375 C68.84645164 272.62564568 51.76216322 287.16291452 31.26123047 295.04052734 C2.04185402 305.38520137 -29.02760738 307.14045509 -59.4375 301.15625 C-60.3042334 300.98996094 -61.1709668 300.82367187 -62.06396484 300.65234375 C-77.242309 297.65058369 -92.69272422 293.22503657 -105.4375 284.15625 C-103.94126131 276.47102401 -101.60285555 269.12644507 -99.12402344 261.71484375 C-98.43062066 259.63562175 -97.75023464 257.55241382 -97.0703125 255.46875 C-96.63098662 254.14557467 -96.19091035 252.8226482 -95.75 251.5 C-95.35425781 250.30568359 -94.95851563 249.11136719 -94.55078125 247.88085938 C-93.4375 245.15625 -93.4375 245.15625 -91.4375 244.15625 C-88.86040917 245.44631314 -86.37729842 246.79559201 -83.875 248.21875 C-75.34604578 252.90356578 -66.71471855 256.27509595 -57.4375 259.15625 C-56.42945313 259.47335937 -55.42140625 259.79046875 -54.3828125 260.1171875 C-36.75177285 265.27873824 -16.09133729 266.96281717 1.5625 261.15625 C2.65820312 260.8159375 3.75390625 260.475625 4.8828125 260.125 C15.71325958 256.40596017 23.90893547 250.87935525 29.37890625 240.63671875 C29.76949219 239.81816406 30.16007813 238.99960937 30.5625 238.15625 C30.90152344 237.47175781 31.24054688 236.78726563 31.58984375 236.08203125 C35.67288459 226.20370663 34.66651412 213.62361816 30.88671875 203.8359375 C28.68639715 199.3833693 25.95137987 195.76965193 22.5625 192.15625 C21.73685547 191.26873047 21.73685547 191.26873047 20.89453125 190.36328125 C10.00433152 179.85772434 -5.04095058 174.46117862 -18.8984375 169.14013672 C-46.3693515 158.49515754 -74.68258895 145.15287297 -89.4375 118.15625 C-89.90671875 117.35960937 -90.3759375 116.56296875 -90.859375 115.7421875 C-99.81324753 99.5725471 -99.10676784 79.91229057 -94.47265625 62.5390625 C-87.76025355 40.43559502 -72.65854632 23.14208821 -52.4375 12.15625 C-35.9133699 3.84760686 -18.34214561 0.83373389 0 0 Z " fill="#0E360B" transform="translate(140.4375,221.84375)"/>
<path d="M0 0 C0 16.5 0 33 0 50 C-13.25 49.8125 -13.25 49.8125 -17.34863281 49.72973633 C-36.85451693 49.5977096 -52.24191679 56.90180922 -66.296875 70.16796875 C-91.77927625 96.39726797 -91.61541259 134.39699677 -91.60750484 168.54982567 C-91.61068071 173.08214854 -91.63639356 177.61434918 -91.65948486 182.14660645 C-91.6996966 190.68813707 -91.72030257 199.22959205 -91.73345876 207.77120256 C-91.74944838 217.51287417 -91.78791268 227.25441916 -91.82805204 236.9960165 C-91.90997317 256.99732669 -91.96139745 276.99855606 -92 297 C-109.16 297 -126.32 297 -144 297 C-144.02505615 289.1720874 -144.0501123 281.3441748 -144.07592773 273.27905273 C-144.15689972 248.1914897 -144.24254873 223.1039447 -144.33111694 198.0164074 C-144.34488541 194.11518644 -144.35861268 190.21396533 -144.37231445 186.31274414 C-144.37504276 185.53612834 -144.37777106 184.75951254 -144.38058204 183.95936293 C-144.42457674 171.4082767 -144.46523791 158.8571818 -144.50465261 146.30608045 C-144.54521385 133.41368333 -144.58939114 120.52130221 -144.63687855 107.62892872 C-144.66603415 99.68290478 -144.69241757 91.73688181 -144.71517897 83.79083694 C-144.73297807 77.68300457 -144.75582451 71.57520024 -144.78049088 65.46739197 C-144.78979128 62.97262182 -144.79749114 60.47784509 -144.80341911 57.98306465 C-144.80048697 42.92808882 -144.80048697 42.92808882 -145.51283264 27.89613342 C-146.05076878 20.28133876 -146 12.63377188 -146 5 C-130.82 5 -115.64 5 -100 5 C-98.87365177 17.38983051 -98.87365177 17.38983051 -98.68359375 23.546875 C-98.66281265 24.20600891 -98.64203156 24.86514282 -98.62062073 25.54425049 C-98.57793541 26.92203031 -98.53683563 28.29986016 -98.49731445 29.67773438 C-98.43798417 31.73322614 -98.37271037 33.78846502 -98.30664062 35.84375 C-98.02717229 44.89868625 -97.94858273 53.94076621 -98 63 C-97.01 63 -96.02 63 -95 63 C-94.86271484 61.75283203 -94.86271484 61.75283203 -94.72265625 60.48046875 C-93.86614891 56.35534422 -92.34449379 53.04390654 -90.4375 49.3125 C-90.08034912 48.60915527 -89.72319824 47.90581055 -89.35522461 47.18115234 C-86.13501148 40.99500921 -82.41054049 35.410263 -78 30 C-77.31292969 29.14921875 -76.62585938 28.2984375 -75.91796875 27.421875 C-63.92504447 13.33289008 -47.26699937 3.27507253 -29 0 C-27.845 -0.226875 -26.69 -0.45375 -25.5 -0.6875 C-16.84532554 -1.46023879 -8.66685126 -0.86668513 0 0 Z " fill="#0D360A" transform="translate(734,223)"/>
</svg>
